# xmcd
#
# Track frame offsets:
#	150
#	11055
#	41322
#	61900
#	83737
#	102527
#	116407
#	129115
#	162235
#	177810
#	194012
#	200507
#	242832
#	270735
#
# Disc length: 4363 seconds
#
# Revision: 1
# Processed by: cddbd v1.5.1PL0 Copyright (c) Steve Scherf et al.
# Submitted via: audiograbber 1.83.01
#
DISCID=b911090e
DTITLE=Haavisto,Janne - Permanent Jet lag
DYEAR=2001
DGENRE=Blues
TTITLE0=Permanent jet lag
TTITLE1=Piccole regole della casa
TTITLE2=Meet me in Mumbai
TTITLE3=Night flight from Delhi
TTITLE4=Dig my shoes
TTITLE5=I feel satisfield
TTITLE6=Dodo meets man
TTITLE7=Looks like we made it,babe
TTITLE8=Beyond the Eiffel tower
TTITLE9=Heading home
TTITLE10=Satisfied
TTITLE11=Reykjavik
TTITLE12=Heading home
TTITLE13=Welcome tourist we take your dolar
EXTD=
EXTT0=
EXTT1=
EXTT2=
EXTT3=
EXTT4=
EXTT5=
EXTT6=
EXTT7=
EXTT8=
EXTT9=
EXTT10=
EXTT11=
EXTT12=
EXTT13=
PLAYORDER=
